<svg xmlns="http://www.w3.org/2000/svg" width="128" height="128" viewBox="0 0 128 128">
<!-- SVG created with Arrow, by QuiverAI (https://quiver.ai) -->
  <style type="text/css">.cls-0 {fill:#FCF4E2;}
.cls-1 {fill:#DED7C8;}
.cls-2 {fill:none;stroke:#0B453A;stroke-width:0.6981042424242424;stroke-linecap:round;stroke-linejoin:round;stroke-miterlimit:10;}
.cls-3 {fill:#92B49D;stroke:#0B453A;stroke-width:0.6981042424242424;stroke-linecap:round;stroke-linejoin:round;stroke-miterlimit:10;}
.cls-4 {fill:#0E6A5D;stroke:#0B453A;stroke-width:0.6981042424242424;stroke-linecap:round;stroke-linejoin:round;stroke-miterlimit:10;}
.cls-5 {fill:#FFF6E7;stroke:#0B453A;stroke-width:0.6981042424242424;stroke-linecap:round;stroke-linejoin:round;stroke-miterlimit:10;}
.cls-6 {fill:#CE7047;stroke:#0B453A;stroke-width:0.6981042424242424;stroke-linecap:round;stroke-linejoin:round;stroke-miterlimit:10;}
.cls-7 {fill:#0E6A5D;stroke:#0B453A;stroke-width:0.5818181818181818;stroke-linecap:round;stroke-linejoin:round;stroke-miterlimit:10;}
.cls-8 {fill:#FBBE89;}
.cls-9 {fill:#F49849;stroke:#0B453A;stroke-width:0.5818181818181818;stroke-linecap:round;stroke-linejoin:round;stroke-miterlimit:10;}
.cls-10 {fill:#8DB29C;stroke:#0B453A;stroke-width:0.5818181818181818;stroke-linecap:round;stroke-linejoin:round;stroke-miterlimit:10;}
.cls-11 {fill:#FFF6E7;stroke:#0B453A;stroke-width:0.6981042424242424;stroke-linecap:round;stroke-linejoin:round;stroke-miterlimit:10;}
.cls-12 {fill:#0E6A5D;stroke:#0B453A;stroke-width:0.6981042424242424;stroke-linecap:round;stroke-linejoin:round;stroke-miterlimit:10;}
.cls-13 {fill:#92B49D;stroke:#0B453A;stroke-width:0.6981042424242424;stroke-linecap:round;stroke-linejoin:round;stroke-miterlimit:10;}
.cls-14 {fill:#F49849;stroke:#0B453A;stroke-width:0.5818181818181818;stroke-linecap:round;stroke-linejoin:round;stroke-miterlimit:10;}
.cls-15 {fill:#FBBE89;stroke:#0B453A;stroke-width:0.5818181818181818;stroke-linecap:round;stroke-linejoin:round;stroke-miterlimit:10;}
.cls-16 {fill:#FFF6E7;stroke:#0B453A;stroke-width:0.5818181818181818;stroke-linecap:round;stroke-linejoin:round;stroke-miterlimit:10;}</style>
  <path class="cls-1" d="m118.7 72.3-8.068-3.258-5.353 7.602-12.18 6.361c2.327 1.552 5.43 1.784 8.533 1.707 4.655-0.07758 8.145-1.396 11.02-2.715 5.198-3.258 12.02-5.973 6.051-9.697z"/>
  <path class="cls-1" d="m67.1 87.43v4.887l-28.32 13.81-22.19-10.71c-0.1552 1.474 2.017 2.327 2.793 2.793l12.64 7.447c2.172 1.241 4.81 2.172 8.301 2.172 4.189 0 6.594-1.086 10.08-2.482l20.64-9.542c3.336-1.474 4.112-4.034 0.6982-5.818l-4.655-2.56z"/>
  <path class="cls-1" d="m58.72 68.42c-0.4655 1.707 1.396 2.87 2.56 3.336l30.64 12.02 1.164-1.939-31.81-12.8-2.56-0.6206z"/>
  <path class="cls-3" d="m106.7 37.93-11.25-3.801-2.327 3.103 0.3879 40.34 15.13-1.629c2.017-1.086 3.103-2.87 3.103-5.353 0-2.56-0.4655-12.57-0.4655-26.38 0-2.172-1.629-5.43-4.577-6.284z" stroke-width=".6981"/>
  <path class="cls-4" d="m60.66 69.28 0.1552 1.008c0.07758 0.3879 0.3103 0.6982 0.6982 0.7758l1.707 0.543c0.6982 0.2327 1.319-0.07758 1.319-0.543v-0.4655l-3.879-1.319z" stroke-width=".6981"/>
  <path class="cls-4" d="m89.76 80.45 0.1552 0.9309c0.07758 0.3879 0.3103 0.6982 0.6982 0.7758l1.707 0.543c0.6982 0.2327 1.784 0.4655 2.017-0.543v-0.4655l-4.577-1.241z" stroke-width=".6981"/>
  <path class="cls-5" d="m57.87 37.55c-0.2327 2.095-1.164 24.44-1.164 25.91 0 2.095 1.164 4.422 3.336 5.353l32.66 12.8c1.629 0.7758 3.336 0.7758 4.655 0.2327l5.43-2.56 1.164-1.319 0.3879-28.7-46.47-11.71z" stroke-width=".6981"/>
  <path class="cls-3" d="m66.17 28.94-4.732 2.017c-2.405 1.164-3.491 3.181-3.491 6.594 0 0.8533 3.801 1.862 12.64 5.042 16.68 5.896 21.64 8.223 25.21 9.076 3.879 0.543 6.051-0.543 7.835-1.474l0.2327-0.6206-0.1552-2.638-1.707-3.879-3.103-2.327-2.327-0.7758 1.164-1.241h0.3103v-0.6982l-2.25-1.164-0.3879-5.818-2.715-5.042-14.74-5.12-1.939 0.1552-1.629 0.9309-0.9309 3.724-0.07758 0.8533h-1.474l-1.396 0.2327-4.344 2.172z" stroke-width=".6981"/>
  <path class="cls-2" d="m63.77 32.81 28 9.619" stroke-width=".6981"/>
  <path class="cls-2" d="m94.72 43.52c1.629 0.2327 3.413 1.939 3.724 4.499" stroke-width=".6981"/>
  <path class="cls-3" d="m73.46 29.48c-1.707-0.7758-2.638 0.3879-2.793 0.8533l0.07758 0.9309 2.638 0.9309 0.07758-2.715z" stroke-width=".6981"/>
  <path class="cls-3" d="m73.39 26.53c-0.9309-0.07758-2.327 0.07758-3.181 0.4655l-4.034 1.939 1.396-0.1552 3.103 1.164 0.9309-0.6982h1.784v-2.715z" stroke-width=".6981"/>
  <path class="cls-2" d="m65.24 29.71c0.9309 0 1.552 0.1552 2.638 0.6206l31.03 10.71c2.638 0.8533 4.81 3.568 4.81 7.447l0.1552 25.6c0 2.327-0.3879 3.879-1.552 5.042l2.793-1.396c0.7758-1.319 0.8533-2.56 0.8533-4.422v-25.29c0-2.948-1.707-6.206-4.732-7.758l-3.181-1.396" stroke-width=".6981"/>
  <path class="cls-2" d="m98.75 54.54v22.57" stroke-width=".6981"/>
  <path class="cls-3" d="m95.42 30.95-1.629 0.543-0.3103 6.904 1.241-0.07758 0.6982-0.543v-6.827z" stroke-width=".6981"/>
  <path class="cls-3" d="m77.19 20.64-1.939 0.8533 2.327 0.2327 12.8 4.577c2.327 0.7758 3.491 2.017 3.491 5.43l1.552-0.7758c0.3103-2.327-0.8533-4.655-3.103-5.353l-12.8-4.655c-1.086-0.3879-1.629-0.3879-2.327-0.3103z" stroke-width=".6981"/>
  <path class="cls-3" d="m77.58 25.99-0.7758-0.07758-0.6206 0.3879-0.1552 6.284 1.552-0.6982v-5.896z" stroke-width=".6981"/>
  <path class="cls-3" d="m77.58 27.93 13.19 4.732v3.568l-13.19-4.344v-3.956z" stroke-width=".6981"/>
  <path class="cls-3" d="m77.19 25.91c-0.6982-0.2327-1.164 0.1552-2.327 0.8533v5.896c0.7758 0 2.327-0.3879 2.715-0.8533v-5.818l-0.3879-0.07758z" stroke-width=".6981"/>
  <path class="cls-3" d="m77.58 21.88c-2.715-0.9309-4.189 0.6206-4.189 2.948v6.516c0 1.164 2.25 1.319 2.638 1.319v-5.818c0-0.8533 0.7758-1.164 1.552-0.8533l12.02 4.034c0.7758 0.3103 1.164 0.6982 1.164 1.707v5.508c0.3879 0.7758 2.327 1.319 3.103 1.164v-7.059c0-2.172-1.164-3.879-3.103-4.499l-13.19-4.965z" stroke-width=".6981"/>
  <path class="cls-2" d="m76.02 32.97 14.74 4.267" stroke-width=".6981"/>
  <path class="cls-3" d="m95.42 36.77v0.6982c0 0.543-1.164 0.9309-1.939 0.9309l3.103 1.552c0-1.241 0.7758-1.939 1.474-1.939v-0.3879l-2.638-0.8533z" stroke-width=".6981"/>
  <path class="cls-2" d="m98.06 38.01-1.474 1.164v0.7758l1.629-1.086-0.1552-0.8533z" stroke-width=".6981"/>
  <path class="cls-6" d="m72.22 43.44-0.07758 3.646c0 0.2327 0.07758 0.3879 0.3103 0.4655l7.913 2.87c0.2327 0.07758 0.3879-0.07758 0.3879-0.2327l0.1552-3.336-8.688-3.413z" stroke-width=".6981"/>
  <path class="cls-2" d="m103.7 49.65c-2.482 1.241-4.81 2.715-9.852 1.552" stroke-width=".6981"/>
  <path class="cls-5" d="m19.78 49.49-10.94 4.81c-1.474 0.6206-2.638 2.56-2.25 4.655l3.258 18c0.2327 1.086 0.6206 2.095 1.552 2.405l3.724 1.319 12.41-5.042 16.29-6.982 1.784-1.396 0.1552-2.482-3.336-19.08-1.707-2.56-3.879-0.7758-1.552 0.2327-8.533 3.568-6.982 3.336z" stroke-width=".6981"/>
  <path class="cls-11" d="m15.52 82.62v10.47c0 1.241 0.6982 2.327 1.939 3.025l15.52 8.921c1.939 1.241 5.042 1.552 7.758 0.4655l25.21-11.4c1.241-0.543 2.095-1.396 2.095-3.336l-0.07758-10.47-19.08-4.267-33.36 6.594z" stroke-width=".6981"/>
  <path class="cls-11" d="m17.84 80.29c-1.164 0.3879-2.327 1.164-2.327 2.327s0.7758 2.327 1.939 3.025l15.52 9.309c1.939 1.241 5.43 1.552 7.758 0.4655l25.6-11.64c1.086-0.3879 1.707-1.164 1.707-2.327 0-1.164-0.9309-2.405-2.87-3.103l-15.52-8.921c-1.164-0.7758-3.879-1.086-5.818-0.3879l-25.99 11.25z" stroke-width=".6981"/>
  <path class="cls-7" d="m18.62 81.07c-2.327 1.086-1.939 2.715-0.3879 3.491l15.13 9.309c1.552 1.164 4.655 1.164 6.206 0.6982l25.6-10.78c2.715-1.164 1.939-4.267 0.3879-4.732l-16.29-8.844c-1.164-0.4655-3.491-0.4655-4.655 0l-25.99 10.86z" stroke-width=".5818"/>
  <path class="cls-5" d="m12.8 54.69c-2.327 0.7758-3.879 2.715-3.491 5.042l3.491 18.62c0.7758 2.327 2.715 2.715 4.267 1.939l25.99-11.33c1.552-0.6982 2.327-2.327 2.715-3.413l-3.336-19.47c-0.1552-1.862-2.095-3.025-4.422-2.638l-25.21 11.25z" stroke-width=".6981"/>
  <path class="cls-12" d="m12.41 56.16c-1.552 0.7758-2.172 2.405-1.784 3.956l3.336 17.45c0.3879 1.552 1.552 2.327 3.103 1.552l25.6-10.86c1.552-0.3879 2.327-2.327 1.939-3.879l-3.103-17.84c-0.3879-2.327-2.327-2.715-3.491-1.939l-25.6 11.56z" stroke-width=".6981"/>
  <path class="cls-13" d="m12.8 56.16c-1.552 0.4655-2.327 2.017-1.939 3.956l3.258 17.84 20.4-8.533 5.43-2.327c1.552-0.4655 2.172-2.017 1.784-3.879l-3.336-17.07s-0.3879-1.552-1.164-1.164l-24.44 11.17z" stroke-width=".6981"/>
  <path class="cls-7" d="m20.56 48.87c0-0.7758 0-0.8533 0.7758-1.241l4.267-1.939c0.3879-0.2327 1.164 0 1.319 0.4655l0.2327 1.939-6.206 2.715-0.3879-1.939z" stroke-width=".5818"/>
  <path class="cls-3" d="m66.17 29.4 1.319-0.6982c0.7758 0 1.939 0.4655 3.181 1.241l-0.1552 1.319-4.344-1.862z" stroke-width=".6981"/>
  <path class="cls-2" d="m65.24 29.71" stroke-width=".6981"/>
  <path class="cls-9" d="m40.73 77.89c0-2.25 2.327-5.353 6.206-5.353 3.879 0 6.594 3.103 6.206 5.818l-4.267 3.879-8.145-4.344z" stroke-width=".5818"/>
  <path class="cls-14" d="m43.83 74.86c0.3879-0.7758 3.103-1.939 3.258-0.7758l0.2327 3.103-0.3879 0.3879-3.103-2.715z" stroke-width=".5818"/>
  <path class="cls-14" d="m47.09 74.08c0.2327-1.164 2.948-0.3879 3.336 0.7758l-2.715 3.103-0.3879-0.3879-0.2327-3.491z" stroke-width=".5818"/>
  <path class="cls-14" d="m50.81 75.25c0.7758 0 1.552 1.552 1.552 2.327l-3.491 1.552-0.7758-1.552 2.715-2.327z" stroke-width=".5818"/>
  <path class="cls-14" d="m43.05 75.64c0.3879-0.7758 0.7758-0.3879 1.164 0l1.939 1.939-0.3879 0.7758-3.491-0.3879c-0.3879-0.3879 0-1.939 0.7758-2.327z" stroke-width=".5818"/>
  <path class="cls-15" d="m46.16 78.35c0-0.7758 0.7758-1.164 1.164-1.164 0.7758 0 1.164 0.7758 1.164 1.164 0 0.7758-0.3879 1.164-1.164 1.164-0.3879 0-1.164-0.3879-1.164-1.164z" stroke-width=".5818"/>
  <path class="cls-14" d="m42.28 78.35h3.879l0.3879 0.7758-1.552 1.552-2.715-2.327z" stroke-width=".5818"/>
  <polygon class="cls-14" points="46.55 79.52 47.32 79.9 47.32 82.23 44.99 80.68" stroke-width=".5818"/>
  <polygon class="cls-14" points="47.71 79.52 48.48 79.52 49.65 80.68 48.1 82.23 47.71 81.84" stroke-width=".5818"/>
  <polygon class="cls-14" points="48.87 79.13 49.65 79.13 51.98 78.35 50.42 80.68 49.65 80.68" stroke-width=".5818"/>
  <path class="cls-10" d="m23.27 83.7c-1.164 0.7758-0.7758 1.629 0.3879 2.405l10.08 6.982c1.552 1.164 4.267 1.164 5.818 0.7758l8.533-3.879c1.552-0.3879 1.552-1.164 1.552-1.939v-2.715l-23.27-3.103-3.103 1.474z" stroke-width=".5818"/>
  <path class="cls-6" d="m24.05 83.01v4.655l10.08 6.206c1.552 0.7758 3.879 0.7758 5.43 0.3879l9.309-4.267 0.3879-0.7758v-4.655l-25.21-1.552z" stroke-width=".6981"/>
  <path class="cls-10" d="m24.05 86.81c1.164 0.7758 2.327 0 3.103 1.241 0.7758 1.939 2.715 1.552 3.491 1.939 1.164 1.164 1.939 1.552 2.715 1.552 0.7758 0.3879 1.552 1.939 3.491 1.939s2.327-1.164 3.879-1.164c1.552 0 2.327-0.3879 3.103-1.552 0.7758-0.7758 2.327-1.552 3.879-1.939 1.552-0.3879 1.939-1.164 1.939-1.939v-1.164l-0.7758-1.164-24.82 1.552v0.6982z" stroke-width=".5818"/>
  <path class="cls-9" d="m48.48 82.23c0-2.715 2.715-5.43 6.206-5.275 3.491 0.2327 6.206 2.948 5.896 6.439l-2.405 1.939-6.982 3.103c-1.164-0.3879-1.939-1.939-1.939-1.939l-0.7758-4.267z" stroke-width=".5818"/>
  <path class="cls-16" d="m24.05 81.45v2.327c0 0.7758 0.3879 1.164 1.164 1.552l8.921 5.43c1.552 0.7758 3.103 1.164 4.655 0.3879l9.309-3.879c1.164-0.4655 1.552-0.7758 1.552-1.552l-0.7758-3.491-12.41-6.206-12.41 5.43z" stroke-width=".5818"/>
  <path class="cls-11" d="m25.6 80.29c-1.939 0.7758-1.939 1.939-0.3879 2.715l9.309 5.43c1.164 0.7758 2.715 1.164 4.267 0.3879l8.921-4.267c1.552-0.3879 1.552-1.939 0.3879-2.715l-9.697-5.43c-1.164-0.4655-2.715-0.4655-3.879 0l-8.921 3.879z" stroke-width=".6981"/>
  <path class="cls-14" d="m51.59 79.13c0.3879-0.7758 2.327-1.552 3.258-1.008l-0.543 3.724-0.3879 0.3879-2.327-3.103z" stroke-width=".5818"/>
  <path class="cls-14" d="m55.47 78.12c0.7758-0.1552 3.103 1.008 2.715 1.784l-3.103 2.327-0.3879-0.3879 0.7758-3.724z" stroke-width=".5818"/>
  <path class="cls-14" d="m58.57 80.29c0.7758 0 1.552 2.715 0.3879 3.103l-3.491-0.3879v-0.7758l3.103-1.939z" stroke-width=".5818"/>
  <path class="cls-14" d="m50.04 81.84c-0.3879-0.3879 0.3879-2.327 1.552-2.715l2.327 3.103-0.3879 0.3879-3.491-0.3879v-0.3879z" stroke-width=".5818"/>
  <path class="cls-15" d="m53.53 83.01c0-0.3879 0.3879-1.164 1.164-0.8533 0.7758 0.07758 1.164 0.8533 0.7758 1.241 0 0.3879-0.7758 1.164-1.164 0.7758-0.3879 0-0.7758-0.3879-0.7758-1.164z" stroke-width=".5818"/>
  <path class="cls-14" d="m49.65 83.01 0.3879-0.3879 3.491 0.3879v0.6982l-3.103 2.405c-0.7758-0.7758-1.164-2.327-0.7758-3.103z" stroke-width=".5818"/>
  <path class="cls-14" d="m50.81 86.5 2.715-2.327h0.7758v2.715l-1.939 1.164c-0.7758 0-1.552-1.164-1.552-1.552z" stroke-width=".5818"/>
  <polygon class="cls-14" points="54.69 84.48 55.47 84.17 57.02 85.72 54.3 86.88" stroke-width=".5818"/>
  <path class="cls-14" d="m55.47 83.39 3.491 0.3879 0.3879 0.6982-2.327 1.241-1.552-1.552v-0.7758z" stroke-width=".5818"/>
</svg>