<svg xmlns="http://www.w3.org/2000/svg" viewBox="0 0 150 150">
<!-- SVG created with Arrow, by QuiverAI (https://quiver.ai) -->
  <style type="text/css">.cls-0 {fill:#D6D9DA;}
.cls-1 {fill:#8FAB97;stroke:#144230;stroke-width:0.9381;stroke-linecap:round;stroke-linejoin:round;stroke-miterlimit:10;}
.cls-2 {fill:none;stroke:#144230;stroke-width:0.9381;stroke-linecap:round;stroke-linejoin:round;stroke-miterlimit:10;}
.cls-3 {fill:#6E917A;}
.cls-4 {fill:#F6EBDB;}
.cls-5 {fill:#CFCEBB;}
.cls-6 {fill:#C67B59;}
.cls-7 {fill:#8FAB97;stroke:#144230;stroke-width:0.9381;stroke-linecap:round;stroke-miterlimit:10;}
.cls-8 {fill:#8FAB97;stroke:#144230;stroke-width:0.9381;stroke-miterlimit:10;}
.cls-9 {fill:#F6EBDB;stroke:#144230;stroke-width:0.9381;stroke-linecap:round;stroke-linejoin:round;stroke-miterlimit:10;}
.cls-10 {fill:#8FAB97;stroke:#144230;stroke-width:0.9381;stroke-linecap:round;stroke-miterlimit:10;}
.cls-11 {fill:#8FAB97;stroke:#144230;stroke-width:0.9381;stroke-linejoin:bevel;stroke-miterlimit:10;}
.cls-12 {fill:none;stroke:#144230;stroke-width:0.75;stroke-linecap:round;stroke-miterlimit:10;}
.cls-13 {fill:#688976;stroke:#144230;stroke-width:0.9381;stroke-linecap:round;stroke-linejoin:round;stroke-miterlimit:10;}
.cls-14 {fill:#8FAB97;stroke:#144230;stroke-width:0.75;stroke-miterlimit:10;}
.cls-15 {fill:#D7B593;stroke:#144230;stroke-width:0.9381;stroke-linecap:round;stroke-linejoin:round;stroke-miterlimit:10;}
.cls-16 {fill:#BE9B81;}
.cls-17 {fill:#D7B593;stroke:#144230;stroke-width:0.9381;stroke-miterlimit:10;}
.cls-18 {fill:#AABCAB;}
.cls-19 {fill:none;stroke:#9AAF9F;stroke-width:1.8762;stroke-linecap:round;stroke-linejoin:round;stroke-miterlimit:10;}
.cls-20 {fill:none;stroke:#9AAF9F;stroke-width:1.4071;stroke-linecap:round;stroke-linejoin:round;stroke-miterlimit:10;}
.cls-21 {fill:none;stroke:#7C917A;stroke-width:0.782;stroke-linecap:round;stroke-linejoin:round;stroke-miterlimit:10;}
.cls-22 {fill:#5A7F6B;stroke:#144230;stroke-width:0.9381;stroke-linecap:round;stroke-linejoin:round;stroke-miterlimit:10;}
.cls-23 {fill:none;stroke:#7A4424;stroke-width:0.75;stroke-linecap:round;stroke-miterlimit:10;}</style>
  <path class="cls-0" d="m110 71c7.5 3.3 8.2 4.8 7.7 8.8-0.4 4.1-7.4 8.2-12.7 7.2l-16-12 21-4z"/>
  <path class="cls-0" d="m22 94.6c3.7 1.8 5.2 1.7 7.6 1.3 6.4-1 9.7-1.7 12.4-0.4 1.9 0.7 35 14.1 42.2 18.5 3.5 1.6 10 2.6 14.8 1.1v-5.2l-58-18.9h-20l1 3.6z"/>
  <path class="cls-0" d="m133 99.4c4.9-2 11-0.6 11 1.9s-5 3.7-9 3.3c-5-0.5-5-2.6-4-3.6l2-1.6z"/>
  <path class="cls-1" d="m62.8 63c-1.1-13.7 10.7-28 26.2-28 10.4 0 18.4 6 22 11 1 1.5 3 6 3 10 0 3 0 12-7.3 23l-30.7-8-13.2-8z"/>
  <path class="cls-3" d="m92.5 73.6c11.5-1 18.1-9 18.5-15.1l3 6.5c0 4.5-2.3 9.3-7.2 14l-14.3-5.4z"/>
  <path class="cls-4" d="m65 63.4c0.5-6.9 6.2-17.9 14.4-24.3 2.4 0.4 8.8 3.9 10.6 5.4-4 3.5-9.9 12-13.4 21-0.3 0.8 0.4 2.5 0.4 2.5l-12-4.6z"/>
  <path class="cls-5" d="m65.2 63.5c0-1.4 0.2-2.9 1.2-5.5 3.6 6 5.9 7.7 7.3 8.5l-8.5-3z"/>
  <path class="cls-6" d="m87 42.1c2.4-1.1 6.7-3.1 10.5-2.8 1.4 0.1 2.8 2.7 1.8 2.8-2 0.3-9.3 2.6-9.3 2.6-0.9-0.7-2.5-1.7-3.4-2.3l0.4-0.3z"/>
  <path class="cls-2" d="m87 42c2.4-1 6.9-3 10.4-2.7 1 0.1 2.6 2.2 2 2.8-2.6 0.4-6.5 1.4-9.5 2.5-1.9 1.2-9.9 10.3-13.3 21.9"/>
  <path class="cls-2" d="m66.1 58.3c1.9-5.8 7.6-14.5 12.9-19.2"/>
  <path class="cls-1" d="m16.8 80c-2.4-2-3.8-5.4-3.3-10 1.2-8.5 9-18.6 17.5-18.2l24.5 8.8-16.5 28.8-22.2-9.4z"/>
  <path class="cls-3" d="m14 75.5 25 10.5 0.5 4-22.7-10c-0.7-0.6-2.4-2.5-2.8-4.5z"/>
  <path class="cls-1" d="m6.5 85.5v1.4c0.1 0.7 0.5 0.9 1 1.1l14.5 6c2.7 1.1 3.1 1 6.5 0.4 8.1-1.4 11.5-2 16-1.4l-0.5-2.5-27.2-10.5c-2.8 5.5-8.7 3.5-10 4.8l-0.3 0.7z"/>
  <path class="cls-3" d="m14.4 82.6 20.6 8.4 4-0.5 1.6-1-23.8-9.5c-0.5 0.9-1.3 2.1-2.4 2.6z"/>
  <path class="cls-2" d="m6.8 85.8 15.9 6.3c1.8 0.9 3.3 0.6 5.8 0 5.6-0.9 10.9-1.7 13.3-1"/>
  <path class="cls-5" d="m39 86 20 8 1 5.5-17.4-7c-1.9-1.4-3-4-3.6-6.5z"/>
  <path class="cls-1" d="m42.6 92.4c-1.6-0.7-5.1-6.5-2.6-15.5 2.6-8.3 9.4-15 16-16.1h1.1l18.2 6.2-16.3 32.4-16.4-7z"/>
  <path class="cls-4" d="m39 86.5c-1.5-9.7 6.1-24 17-25.7 1.3-0.2 1.4-0.1 2 0.1l16.1 5.9-1.4 0.9c-7.2 2.3-13.3 10.4-15.2 20.1v6.1l-18.5-7.4z"/>
  <path class="cls-7" d="m58.6 96.2c-2.7-5.7-0.6-22.2 11.4-27.6 1.5-0.6 3-1.1 4.5-1.2l32.4 11.1-8.2 36-35.1-14.4c-2 0.6-3.8-1-5-3.9z"/>
  <path class="cls-8" d="m89 107.8c-3.2-8.8 1-21.8 10.5-26.8 8.9-4.3 15.2 2.6 14.7 12.4-0.5 9.2-8.1 22.5-18.9 21.2-3.2-0.8-5.3-3.6-6.3-6.8z"/>
  <path class="cls-1" d="m80.7 105c-1.7 0-2.7-0.2-4.7-1l-17.5-7.5 0.5 2 35 15.5c-3.1-1-5-3-5.5-10.1v-6.9c-1.8 6.4-5.4 8-7.8 8z"/>
  <path class="cls-9" d="m65.9 72"/>
  <path class="cls-10" d="m80.7 104.6"/>
  <path class="cls-12" d="m80.7 104c1.7-0.5 3.5-2 4.3-5 3-11.1 10.5-21 19-20.6"/>
  <path class="cls-1" d="m90.2 92c2.3-5 7.3-11 13.3-10.8 4.2 0 8.8 4.2 8.7 11.3-0.2 8.1-5.4 16.4-12.7 19.2-8.5 2.3-13.2-10.2-9.3-19.7z"/>
  <path class="cls-14" d="m92 94.5c2.1-5.5 6.6-9.9 10.5-9.9 4-0.1 6.9 3.6 6.5 9.4-0.5 7-5 14-11 14.1-5.6 0-8-8.1-6-13.6z"/>
  <path class="cls-5" d="m92.2 96.8c-0.3 1.2-0.5 6.6 1.8 9.7-1.5-1-2.7-5.6-1.8-9.7z"/>
  <path class="cls-13" d="m94.6 95.9c1.2-4.3 5-8.4 8.4-8.1 2.5 0.1 4.1 2.8 3.6 6.9-0.6 5.2-4.4 10.3-8.1 10.6-3.4 0.2-5.1-4.3-3.9-9.4z"/>
  <path class="cls-2" d="m95 106.9c3.5 3.1 11.4 0.5 13.6-9.4"/>
  <path class="cls-1" d="m105 57.5"/>
  <path class="cls-1" d="m105 57.5"/>
  <path class="cls-1" d="m129 64.1c4-7.6-0.4-17.1-8.5-19.2-6.9-1.4-15.5 3.7-15.6 12.2 0.1 5.4 3.6 10.8 10.7 13.3l13.4-6.3z"/>
  <path class="cls-3" d="m109 48.4c-1.6 4.7-0.9 10.2 3.1 14.2 2.5 2 6.4 3.9 11 2.4-6.6 3-7.7 5.1-7.7 5.1-5.9-1.1-10.3-6.5-10.5-12.1-0.2-4.1 2-7.1 4.1-9.6z"/>
  <path class="cls-15" d="m121.9 73.9c5.5 8 6.1 16.7 8.2 23 1.4 4 2.9 6.1 6.3 6.2 2.6 0 5.1-2.2 4.9-5.3-0.4-4.8-4.7-8.8-7.8-14.2-3.5-5.7-5.5-11.7-5.5-12.6 2-1.6 5-5 1.4-6.9-5.4-1.1-13.3 3-14.1 6.4-0.2 1.5 0.6 3.9 5.8 3.1l0.8 0.3z"/>
  <path class="cls-16" d="m122.5 71.1-1.5 1.8c3.7 4.6 5.9 11.1 7 15.2 2.1 7.3 3.5 14.6 8.9 14.9 2.2-0.1 3.3-1.5 4-3.1-2.9 2-6.9 1.1-8.9-6-2.2-6.9-4.5-15.9-9.5-22.8z"/>
  <path class="cls-6" d="m128.6 70.1c0.5-0.7 2-2.1 1.9-3.6-0.3-1.5-4.1-1.9-4.1-1.9l-7.9 2.9-3.1 3 0.6 3.1c1.5 1 5.1 0 5.1 0l-0.1-0.6c0.9-2.6 5.9-4 7-2.5l0.6-0.4z"/>
  <path class="cls-17" d="m117.1 72.5c1.5-2.1 5.9-5.6 12.4-5.6"/>
  <path class="cls-18" d="m118 45.6c3.5-0.5 8.6 2.4 9.1 5.9 0 1.6-1.7 2.1-2.6 0.1-2-2.6-4.4-3.7-6.9-4.2-1-0.4-1-1.5 0.4-1.8z"/>
  <path class="cls-19" d="m127.4 54.4"/>
  <path class="cls-20" d="m127.4 54.4"/>
  <path class="cls-21" d="m127.4 54.5"/>
  <path class="cls-22" d="m59 97.6c0.6 1.8 3 2.5 4.6 2.3"/>
  <path class="cls-23" d="m117.1 72.5c2-2.5 6.9-5.6 12.4-5.6"/>
</svg>