<svg xmlns="http://www.w3.org/2000/svg" viewBox="4 61.8 99.7 67">
<!-- SVG created with Arrow, by QuiverAI (https://quiver.ai) -->
  <style type="text/css">* {enable-background:new}</style>
  <linearGradient id="SVGID_1_" x1="-15.5" x2="76" y1="122.3" y2="122.3" gradientTransform="matrix(1 0 0 -1 0 212)" gradientUnits="userSpaceOnUse">
    <stop stop-color="#bebebe" offset="0"/>
    <stop stop-opacity=".3" offset=".5"/>
  </linearGradient>
  <path d="m-15 119s14.8 9.7 45.3 9.7c0-2.1 0-0.9-0.1-3l-9.6-1.7-22.2-5h-13.4z" fill="url(#SVGID_1_)" opacity=".3"/>
  <path d="m29.5 125.4c13.4 1.8 39.9 3.1 49.5-15.4 3-5.2 3.3-9.9 5.4-13.6 3-5.2 9.5-11.5 20.8-12.1v-10.1s-14.9 0.2-23.8 10c-3.5 5-4.4 10.8-6.5 15.8-1.5 4.2-2.9 11.7-17.7 13.5" fill="#DAA88B" stroke="#3C604A" stroke-miterlimit="10" stroke-width=".5"/>
  <path d="m4.3 121.1c7.6 2.5 15.7 4.3 25.2 4.1 21.8-0.7 27.2-10.4 32.5-17.7 3.6-5.2 8.1-10.6 20.8-12.4l-0.5-7.5c-18.8 1.8-23.6 8.7-28.8 15-4.5 5.6-8.4 10.9-22.3 10.9l-16.4 1.5-10.5 2v4.1z" fill="#AEC5AB" stroke="#3D604C" stroke-miterlimit="10" stroke-width=".5"/>
  <linearGradient id="SVGID_2_" x1="-2.802" x2="81.02" y1="100.6" y2="149.3" gradientTransform="matrix(1 0 0 -1 0 212)" gradientUnits="userSpaceOnUse">
    <stop stop-color="#3E604A" offset="0"/>
    <stop stop-color="#426650" offset="1"/>
  </linearGradient>
  <path d="m4.3 120.7c3.2 0 25.8-1.7 39.6-15.1 10.9-10.2 12.7-17.6 17.3-22.3 6.9-7.4 17.1-9.6 19.8-10.1l-2.6-11.3c-5.9 0.7-15.1 2.9-23.7 9.3-10.5 8-14 16.9-22.1 23.5-7.9 6.8-18.7 10.3-30.4 10.4" fill="url(#SVGID_2_)" stroke="#74967B" stroke-miterlimit="10" stroke-width=".5"/>
  <g opacity=".1">
    <path d="m57 113.3-0.2 3.7c-3.8 3.7-10.8 7.3-19.4 9-2.8-0.1-6-0.3-7.9-0.6a35.07 35.07 0 0 0 26.7-12l0.8-0.1z" fill="#7F7F7F"/>
  </g>
  <path d="m72.8 101.4c0.6-1.4 1.2-4.6 1.2-4.4 2.4-0.9 5.2-1.6 8.8-2l0.2 4c-3.6 0.1-7 1-10.2 2.1z" fill="#727272" opacity=".1"/>
  <path d="m8.7 121.5c14.3-0.3 24.2-2.9 31.3-8l-8.7 0.2c-9.3 4.2-19.3 6.7-27 7.3 0 0 1.7 0.6 4.4 1z" fill="#6B806F" opacity=".12"/>
</svg>