<svg xmlns="http://www.w3.org/2000/svg" viewBox="0 0 155.4 68">
<!-- SVG created with Arrow, by QuiverAI (https://quiver.ai) -->
  <style type="text/css">.cls-0 {fill:#E2E2E2;}
.cls-1 {fill:#EEE7D9;}
.cls-2 {fill:none;stroke:#325442;stroke-width:0.7429;stroke-linejoin:round;stroke-miterlimit:10;}
.cls-3 {fill:#7F9B87;}
.cls-4 {fill:#DBCDB4;}
.cls-5 {fill:#DAEBEA;}
.cls-6 {fill:none;stroke:#DACEBA;stroke-width:0.7429;stroke-miterlimit:10;}
.cls-7 {fill:#BF7252;}
.cls-8 {fill:#F2ECDF;}
.cls-9 {fill:#EDC385;}
.cls-10 {fill:#325542;}
.cls-11 {fill:#305441;}
.cls-12 {fill:#CFBEA4;}
.cls-13 {fill:#DAEBEA;}
.cls-14 {fill:none;stroke:#325442;stroke-width:0.7147;stroke-linejoin:round;stroke-miterlimit:10;}</style>
  <path class="cls-0" d="m148.7 62c0 0.6-28.9 1.5-69.5 1.5-42 0-72.7-0.5-72.7-1.5s29.9-1.3 70.1-1.3c40.3 0 72.1 0.6 72.1 1.3z"/>
  <path class="cls-1" d="m8.5 44v-17c0-5 0.6-12.9 1.1-17.7 0.4-3.3 3.7-5 4.8-5h115.7c6.9 0 9.1 2.2 10.7 5.8 3.5 8.1 5.9 21.6 5.9 26.9v8l-138.2-1z"/>
  <path class="cls-3" d="m8.5 12h124c3.5 0 8.7 2.5 8.3 7.9l0.3-7.9c-1.7-4.7-3.7-7.7-11.7-7.7h-115c-2.1 0-4.9 2.4-4.9 5.2l-1 2.5z"/>
  <path class="cls-3" d="m146.7 44h-138.2l0.2 8 19.8 3h4.6l-0.1-3c0-3.9 3.9-8.1 6-9l56 1c4.9-3.6 9.9-3.2 16 0h35.5 0.2z"/>
  <path class="cls-2" d="m8.5 36.5v-9.5c0-5.3 0.6-13.1 1.1-17.5 0.3-2.6 2.5-5.2 4.8-5.2h115.5c6.1 0.1 8.9 2 10.4 4.9 3.3 6.4 6.4 21.6 6.4 28.9v10.9"/>
  <path class="cls-2" d="m114.4 55"/>
  <path class="cls-2" d="m8.5 46v-4"/>
  <path class="cls-14" d="m141 12.9"/>
  <path class="cls-2" d="m9.8 51.5 18.5 3.3 4.8 0.1c-0.2-1.7-0.3-4.7 0.9-7 2.1-3.9 6-7 11-7 7-0.1 12.2 5.4 12 11.9l-0.2 2.2h34.2c-0.3-1.8-0.3-4.3 0.5-6.3 1.6-4.1 5.4-7.7 10.9-7.8 6.4-0.2 12.4 4.4 12.2 11.7l-0.2 2.3 26.6-0.1"/>
  <path class="cls-3" d="m140.9 12.6 0.1 20c0 1.9 2 3.8 5.6 3.6-1-8.2-3.3-18.2-5.7-23.6z"/>
  <path class="cls-2" d="m141 12.6 0.1 19.9c0 1.9 1.9 3.8 5.5 3.7"/>
  <path class="cls-4" d="m118 14.4v38.9l21.3 0.1v-38.9l-21.3-0.1z"/>
  <path class="cls-2" d="m139.2 14.5"/>
  <path class="cls-2" d="m118.2 14.5h21"/>
  <path class="cls-5" d="m141 12.9 0.1 19.6c0 2 1.8 3.7 5.3 3.7-0.9-7.8-3-17.5-5.4-23.3z"/>
  <path class="cls-6" d="m49.3 26.9c0 1.4-0.7 2.1-2.1 2.2h-24.6c-1.1 0-2.1-0.7-2.1-2.1v-10.2c0-1.2 1-2.2 2.4-2.2h24.1c1.3 0 2.3 0.6 2.3 2v10.3z"/>
  <path class="cls-13" d="m49 26.9c0 1.1-0.7 1.8-2 1.8h-24.2c-1.3 0-2.1-0.7-2.1-1.9v-9.8c0-1.4 0.8-2 2.2-2h24c1 0 2 0.5 2 1.9l0.1 10z"/>
  <path class="cls-6" d="m80.6 26.9c0 1.1-0.7 2.1-1.8 2.1h-24.3c-1.1 0.1-1.9-0.6-1.9-2v-10.2c0-1.2 0.8-2.2 2.1-2.2h23.9c1.2 0 2 1.1 2 2v10.3z"/>
  <path class="cls-13" d="m80.4 26.7c0 1.1-0.8 2-1.8 1.9h-23.7c-1 0-1.9-0.8-1.9-1.9v-9.9c0-1 0.4-1.8 1.9-1.8h23.7c1.1 0 1.8 0.7 1.8 1.8v9.9z"/>
  <path class="cls-6" d="m112.6 26.9c0 1-0.7 2.1-2 2.1h-24.6c-1.1 0-2.2-0.8-2.2-2v-10.2c0-1.4 0.9-2.2 2.1-2.2h24.5c1.2 0 2.2 0.9 2.2 2v10.3z"/>
  <path class="cls-13" d="m112.3 26.8c0 0.8-0.7 1.8-1.9 1.8h-24.3c-1.2 0-2-0.8-2-1.8v-9.9c0-1.3 0.6-1.9 2-1.9h24.3c1.3 0 1.9 0.6 1.9 1.9v9.9z"/>
  <path class="cls-7" d="m9.3 35.9c-1 0-1.7 0.2-1.7 1.3v4.2c0 1 0.7 1.2 1.4 1.2 0.9 0 1.5-0.4 1.5-1.3v-3.9c0-0.6-0.4-1.5-1.2-1.5z"/>
  <path class="cls-7" d="m109.9 34.5c-0.4 0.1-1.3 2.4 0.1 2.5h2.9c0.5 0 0.9-0.2 0.9-0.8v-1c0-0.4-0.4-0.9-0.9-0.9h-3v0.2z"/>
  <path class="cls-8" d="m147.5 43.2c-0.1-0.8-1.5-1.2-1.5-0.7l-0.1 4.8c1 0.2 1.6 0.4 1.7-0.9s0-2.6-0.1-3.2z"/>
  <path class="cls-9" d="m145.6 42.1-0.1 5.2c-1.1 0.1-1.1 0.1-1.3-0.3-0.2-0.1-0.1-4.3 0-4.4 0.5-0.6 1.5-0.5 1.4-0.5z"/>
  <path class="cls-11" d="m147.6 48.6h-6.1c-0.5 0-1.1 0.4-1.1 1v5.6h7.3c0.7 0 1-0.5 1-1v-4.6c0-0.5-0.4-1-1.1-1z"/>
  <path class="cls-11" d="m11.9 45.6h-4.3c-0.7 0-1 0.5-1 1v4.8c0 0.5 0.4 1 0.9 1h4.4c0.8 0 1.2-0.2 1.2-1.1v-4.6c0-0.8-0.5-1.1-1.2-1.1z"/>
  <path class="cls-2" d="m118.2 14.5h21v38.7h-21.1z"/>
  <path class="cls-2" d="m128.7 14.5v38.7"/>
  <path class="cls-13" d="m126.8 35.1c0 0.8-0.4 1.1-1 1.1h-4.8c-0.7 0-1.3-0.2-1.3-1.1v-17.5c0-0.9 0.5-1.3 1.2-1.3h4.7c0.9 0 1.2 0.4 1.2 1.3v17.5z"/>
  <path class="cls-13" d="m137.8 17.6"/>
  <path class="cls-13" d="m137.9 35.1c0.1 0.8-0.4 1.2-1.1 1.2h-4.7c-0.7 0-1.3-0.4-1.3-0.9v-17.9c0-0.9 0.6-1.2 1.4-1.2h4.2c0.9 0 1.4 0.3 1.4 1.3l0.1 17.5z"/>
  <path class="cls-10" d="m44.9 42.9c-5.3 0-10.1 4.5-10 9.6 0 5.4 4 10.1 10 10.1 5.5 0 10.1-4.1 10.1-10.1 0-4.5-3.9-9.6-10.1-9.6z"/>
  <path class="cls-12" d="m44.9 47.2c-2.7 0-5.5 2.4-5.5 5.3s2.3 5.4 5.5 5.4c2.6 0 5.4-2.1 5.5-5.3 0-3-2.3-5.3-5.5-5.4z"/>
  <path class="cls-10" d="m44.9 50c-1.2 0-2.7 1.1-2.7 2.5 0 1.5 1.2 2.5 2.6 2.5 1.1 0 2.6-0.8 2.7-2.6 0-1.4-1.3-2.4-2.6-2.4z"/>
  <path class="cls-10" d="m102.5 42.9c-5.4 0-9.8 4.7-9.8 9.6 0 4.7 3.5 10.1 9.8 10.1 5.9 0 10.1-4.1 10.1-10.1 0-4.6-3.9-9.6-10.1-9.6z"/>
  <path class="cls-12" d="m102.6 47.2c-2.9 0-5.4 2.4-5.4 5.3 0 2.5 2.2 5.4 5.4 5.4 2.9 0 5.3-2.3 5.3-5.3s-2.3-5.3-5.3-5.4z"/>
  <path class="cls-10" d="m102.5 49.9c-1.2 0-2.5 1-2.5 2.6 0 1.5 1.5 2.4 2.4 2.5 1 0 2.6-0.7 2.7-2.6 0-1.5-1.4-2.5-2.6-2.5z"/>
</svg>